<svg version="1.1" xmlns="http://www.w3.org/2000/svg" xmlns:xlink="http://www.w3.org/1999/xlink" width="47.13714" height="56.47862" viewBox="0,0,47.13714,56.47862"><defs><linearGradient x1="297.05643" y1="178.7105" x2="319.05643" y2="178.7105" gradientUnits="userSpaceOnUse" id="color-1"><stop offset="0" stop-color="#009cff"/><stop offset="1" stop-color="#61c9ff"/></linearGradient><linearGradient x1="320.94357" y1="178.7105" x2="342.94357" y2="178.7105" gradientUnits="userSpaceOnUse" id="color-2"><stop offset="0" stop-color="#009cff"/><stop offset="1" stop-color="#61c9ff"/></linearGradient></defs><g transform="translate(-297.05643,-163.96868)"><g data-paper-data="{&quot;isPaintingLayer&quot;:true}" fill-rule="nonzero" stroke-linecap="butt" stroke-linejoin="miter" stroke-miterlimit="10" stroke-dasharray="" stroke-dashoffset="0" style="mix-blend-mode: normal"><path d="M297.05643,178.7105c0,-6.07513 4.92487,-11 11,-11c6.07513,0 11,4.92487 11,11c0,6.07513 -4.92487,11 -11,11c-6.07513,0 -11,-4.92487 -11,-11z" fill="url(#color-1)" stroke="none" stroke-width="0"/><text transform="translate(302.33644,186.35275) scale(0.5,0.5)" font-size="40" xml:space="preserve" fill="#000000" fill-rule="nonzero" stroke="none" stroke-width="1" stroke-linecap="butt" stroke-linejoin="miter" stroke-miterlimit="10" stroke-dasharray="" stroke-dashoffset="0" font-family="Sans Serif" font-weight="normal" text-anchor="start" style="mix-blend-mode: normal"><tspan x="0" dy="0">1</tspan></text><path d="M320.94357,178.7105c0,-6.07513 4.92487,-11 11,-11c6.07513,0 11,4.92487 11,11c0,6.07513 -4.92487,11 -11,11c-6.07513,0 -11,-4.92487 -11,-11z" fill="url(#color-2)" stroke="#00ff2d" stroke-width="2.5"/><text transform="translate(326.22357,185.64725) scale(0.5,0.5)" font-size="40" xml:space="preserve" fill="#000000" fill-rule="nonzero" stroke="none" stroke-width="1" stroke-linecap="butt" stroke-linejoin="miter" stroke-miterlimit="10" stroke-dasharray="" stroke-dashoffset="0" font-family="Sans Serif" font-weight="normal" text-anchor="start" style="mix-blend-mode: normal"><tspan x="0" dy="0">2</tspan></text><text transform="translate(300.54104,201.45474) scale(0.31692,0.31692)" font-size="40" xml:space="preserve" fill="#ffffff" fill-rule="nonzero" stroke="none" stroke-width="1" stroke-linecap="butt" stroke-linejoin="miter" stroke-miterlimit="10" stroke-dasharray="" stroke-dashoffset="0" font-family="Sans Serif" font-weight="normal" text-anchor="start" style="mix-blend-mode: normal"><tspan x="0" dy="0">Server</tspan></text><text transform="translate(300.54104,201.45474) scale(0.31692,0.31692)" font-size="40" xml:space="preserve" fill="#ffffff" fill-rule="nonzero" stroke="none" stroke-width="1" stroke-linecap="butt" stroke-linejoin="miter" stroke-miterlimit="10" stroke-dasharray="" stroke-dashoffset="0" font-family="Sans Serif" font-weight="normal" text-anchor="start" style="mix-blend-mode: normal"><tspan x="0" dy="0">Server</tspan><tspan x="0" dy="48px">Select</tspan></text></g></g></svg>