<svg version="1.1" xmlns="http://www.w3.org/2000/svg" xmlns:xlink="http://www.w3.org/1999/xlink" width="252.25042" height="96.00568" viewBox="0,0,252.25042,96.00568"><g transform="translate(-296.65547,-146.53545)"><g data-paper-data="{&quot;isPaintingLayer&quot;:true}" fill-rule="nonzero" stroke-linejoin="miter" stroke-miterlimit="10" stroke-dasharray="" stroke-dashoffset="0" style="mix-blend-mode: normal"><text transform="translate(301.63626,222.48649) rotate(-15.54694) scale(0.35213,0.35213)" font-size="40" xml:space="preserve" fill="#2fff36" fill-rule="nonzero" stroke="#000000" stroke-width="1" stroke-linecap="butt" stroke-linejoin="miter" stroke-miterlimit="10" stroke-dasharray="" stroke-dashoffset="0" font-family="Pixel" font-weight="normal" text-anchor="start" style="mix-blend-mode: normal"><tspan x="0" dy="0">Tried to add a custom cursor.</tspan><tspan x="0" dy="48px">This is all that remains, sadly.</tspan></text><path d="M516.78421,193.6118l4.55823,7.04455v-25.07028c0,0 0.12138,-3.31508 3.10789,-3.31508c2.60664,0 3.72946,3.31508 3.72946,3.31508v16.3682c0,0 -0.30859,-7.66612 3.31508,-7.87331c2.51461,-0.14378 3.31508,7.87331 3.31508,7.87331c0,0 -1.53328,-6.11334 2.73195,-6.02567c4.35261,0.08947 4.1054,7.68321 4.1054,7.68321c0,0 0.21118,-5.2731 1.43456,-5.31088c3.00281,-0.09272 4.57402,4.27492 4.57402,4.27492v13.26031l-4.55823,14.08908h-18.44013l-12.22435,-22.58397c0,0 -2.51976,-3.77374 -0.14782,-5.7494c1.30676,-1.08844 4.49886,1.60556 4.49886,1.60556z" fill="#00ff08" stroke="#ffffff" stroke-width="2.5" stroke-linecap="round"/></g></g></svg>